# xmcd
#
# Track frame offsets: 
#        150
#        12530
#        23990
#        35207
#        47822
#        65927
#        77477
#        95690
#        109432
#        120875
#        133727
#        146887
#        157277
#        170547
#
# Disc length: 2428 seconds
#
# Revision: 0
# Processed by: cddbd v1.5.2PL0 Copyright (c) Steve Scherf et al.
# Submitted via: ExactAudioCopy v0.95b3
#
DISCID=d4097a0e
DTITLE=The Rascals  - Time Peace - The Rascals' Greatest Hits - The Co
DTITLE=mplete Atlantic Discography (1965-1971) - Disc 05
DYEAR=1900
DGENRE=
TTITLE0=I Ain't Gonna Eat Out My Heart Anymore
TTITLE1=Good Lovin'
TTITLE2=You Better Run
TTITLE3=Come on Up
TTITLE4=Mustang Sally
TTITLE5=Love Is a Beautiful Thing
TTITLE6=In the Midnight Hour
TTITLE7=I've Been Lonely Too Long
TTITLE8=Groovin'
TTITLE9=A Girl Like You
TTITLE10=How Can I Be Sure
TTITLE11=It's Wonderful
TTITLE12=Easy Rollin'
TTITLE13=A Beautiful Morning
EXTD=
EXTT0=
EXTT1=
EXTT2=
EXTT3=
EXTT4=
EXTT5=
EXTT6=
EXTT7=
EXTT8=
EXTT9=
EXTT10=
EXTT11=
EXTT12=
EXTT13=
PLAYORDER=
